<svg xmlns="http://www.w3.org/2000/svg" viewBox="0 0 800 450" width="800" height="450">
  <rect width="800" height="450" fill="#D0CCBF"/>
  <!-- Browser chrome -->
  <rect x="0" y="0" width="800" height="40" fill="#E8E5DC"/>
  <rect x="0" y="40" width="800" height="2" fill="#181818"/>
  <!-- Traffic lights -->
  <circle cx="24" cy="20" r="6" fill="#181818"/>
  <circle cx="44" cy="20" r="6" fill="#181818"/>
  <circle cx="64" cy="20" r="6" fill="#181818"/>
  <!-- URL bar -->
  <rect x="90" y="10" width="620" height="20" fill="#F0EDE5" stroke="#181818" stroke-width="1.5"/>
  <!-- Hero section mockup -->
  <rect x="40" y="70" width="340" height="18" rx="0" fill="#181818" opacity="0.15"/>
  <rect x="40" y="98" width="220" height="12" rx="0" fill="#181818" opacity="0.1"/>
  <rect x="40" y="120" width="260" height="12" rx="0" fill="#181818" opacity="0.1"/>
  <rect x="40" y="150" width="100" height="30" rx="0" fill="#181818" opacity="0.2"/>
  <!-- Image placeholder right -->
  <rect x="440" y="60" width="320" height="200" fill="#181818" opacity="0.08"/>
  <!-- Section mockup -->
  <rect x="40" y="290" width="200" height="14" fill="#181818" opacity="0.15"/>
  <rect x="40" y="320" width="220" height="70" fill="#181818" opacity="0.08"/>
  <rect x="280" y="320" width="220" height="70" fill="#181818" opacity="0.08"/>
  <rect x="520" y="320" width="220" height="70" fill="#181818" opacity="0.08"/>
  <!-- Label -->
  <text x="400" y="430" text-anchor="middle" font-family="Courier New, monospace" font-size="11" fill="#7A7870" letter-spacing="2">ADICIONE UM SCREENSHOT REAL — assets/images/preview-site-institucional.png</text>
</svg>
