<svg xmlns="http://www.w3.org/2000/svg" viewBox="0 0 800 450" width="800" height="450">
  <rect width="800" height="450" fill="#D0CCBF"/>
  <!-- Browser chrome -->
  <rect x="0" y="0" width="800" height="40" fill="#E8E5DC"/>
  <rect x="0" y="40" width="800" height="2" fill="#181818"/>
  <!-- Traffic lights -->
  <circle cx="24" cy="20" r="6" fill="#181818"/>
  <circle cx="44" cy="20" r="6" fill="#181818"/>
  <circle cx="64" cy="20" r="6" fill="#181818"/>
  <!-- URL bar -->
  <rect x="90" y="10" width="620" height="20" fill="#F0EDE5" stroke="#181818" stroke-width="1.5"/>
  <!-- Nav mockup -->
  <rect x="0" y="42" width="800" height="44" fill="#F0EDE5"/>
  <rect x="0" y="86" width="800" height="1.5" fill="#181818" opacity="0.3"/>
  <rect x="40" y="56" width="40" height="16" fill="#181818" opacity="0.2"/>
  <rect x="580" y="58" width="55" height="12" fill="#181818" opacity="0.12"/>
  <rect x="645" y="58" width="65" height="12" fill="#181818" opacity="0.12"/>
  <rect x="720" y="58" width="50" height="12" fill="#181818" opacity="0.12"/>
  <!-- Hero name -->
  <rect x="40" y="115" width="300" height="50" fill="#181818" opacity="0.18"/>
  <rect x="40" y="175" width="200" height="50" fill="#181818" opacity="0.18"/>
  <!-- Hero desc -->
  <rect x="40" y="240" width="260" height="10" fill="#181818" opacity="0.1"/>
  <rect x="40" y="258" width="220" height="10" fill="#181818" opacity="0.1"/>
  <!-- Buttons -->
  <rect x="40" y="285" width="110" height="34" fill="#181818" opacity="0.2"/>
  <rect x="162" y="285" width="110" height="34" fill="none" stroke="#181818" stroke-width="1.5" opacity="0.4"/>
  <!-- Cards -->
  <rect x="40" y="355" width="220" height="70" fill="#181818" opacity="0.08"/>
  <rect x="276" y="355" width="220" height="70" fill="#181818" opacity="0.08"/>
  <rect x="512" y="355" width="220" height="70" fill="#181818" opacity="0.08"/>
  <!-- Label -->
  <text x="400" y="435" text-anchor="middle" font-family="Courier New, monospace" font-size="11" fill="#7A7870" letter-spacing="2">ADICIONE UM SCREENSHOT REAL — assets/images/preview-portfolio-ldelboux.png</text>
</svg>
